<svg width="39" height="61" viewBox="0 0 39 61" fill="none" xmlns="http://www.w3.org/2000/svg">
<path d="M0.613801 52.2794C0.283293 52.2794 0 52.5592 0 52.8855V59.692C0 60.0184 0.283293 60.2981 0.613801 60.2981H38.3862C38.7167 60.2981 39 60.0184 39 59.692V52.8855C39 52.5592 38.7167 52.2794 38.3862 52.2794H0.613801ZM37.5835 37.3144C37.253 36.4286 26.4879 7.38434 26.0157 6.1256C24.977 3.23516 23.655 0.298096 19.5 0.298096C15.345 0.298096 14.023 3.28178 12.9843 6.1256C12.4649 7.61744 1.88862 36.1955 1.46368 37.3144C1.36925 37.6408 1.5109 37.9671 1.79419 38.107L8.07385 40.4846C8.40436 40.5778 8.73487 40.438 8.8293 40.1116C8.92373 39.8319 11.2845 33.4916 11.5206 32.7923H27.4322C27.7155 33.4916 30.0291 39.8319 30.1235 40.1116C30.2179 40.438 30.5956 40.5778 30.8789 40.4846C31.2094 40.3913 36.7809 38.2468 37.1586 38.107C37.5363 37.9671 37.678 37.5941 37.5835 37.3144ZM14.1174 25.7526L19.5 9.80859H19.5472L24.9298 25.7526H14.1174Z" fill="#E2E8F1"/>
</svg>
