<svg width="199" height="61" viewBox="0 0 199 61" fill="none" xmlns="http://www.w3.org/2000/svg">
<g clip-path="url(#clip0_412_158)">
<path d="M0 0.313171H199V60.2744H0V0.313171Z" fill="#0E172B"/>
<path d="M183.064 4.10703H185.008L185.979 4.39853L186.951 5.0787L187.631 6.05038L188.02 7.5079V9.45126L187.631 11.589L186.951 13.8238L186.077 15.9615L185.299 17.6134L183.939 19.9454L182.773 21.7916L181.413 23.735L180.247 25.2896L179.178 26.5528L178.303 27.6217L176.943 29.0792L176.263 29.7594L175.583 30.8282L175.097 32.2857L175 32.8687V35.3951L175.194 36.5611L175.68 37.9215L176.36 38.796L176.943 39.2818L177.623 39.5733L178.109 39.6705H179.081L180.441 39.2818L181.996 38.5045L183.356 37.5328L184.716 36.3668L185.396 35.6866L186.271 34.6178L186.951 33.7433H187.146V35.9781L186.465 37.1441L185.591 38.3101L184.716 39.2818L183.647 40.3507L182.19 41.4195L180.149 42.4884L178.303 43.0714L176.749 43.3629L174.417 43.46L173.25 43.2657L171.89 42.5855L170.918 41.711L170.335 41.0309L169.558 39.5733L169.072 38.0186L168.878 37.2413L167.712 38.5045L166.837 39.5733L165.866 40.545L164.214 41.8082L162.854 42.5855L161.396 43.1685L160.036 43.46H158.481L157.412 43.0714L156.635 42.3912L155.955 41.2252L155.566 39.7677L155.469 39.1847L155.372 36.464L154.691 37.5328L153.72 38.796L152.651 39.962L151.971 40.6422L150.708 41.6139L149.153 42.4884L147.792 43.0714L146.238 43.46H144.489L143.226 43.0714L142.06 42.3912L141.379 41.711L140.505 40.3507L139.922 38.8932L139.728 38.213V37.8243L139.242 38.1158L138.173 39.0875L136.327 40.4478L134.286 41.6139L132.634 42.3912L130.302 43.1685L128.65 43.46H126.804L125.055 43.1685L123.598 42.5855L122.626 42.0025L121.654 41.128L120.877 40.2535L120.1 38.6988L119.711 37.5328V37.1441L118.934 37.8243L117.67 38.9903L116.31 40.0592L115.047 41.0309L113.492 42.0025L112.521 42.5855L110.674 43.3629L109.508 43.6544H108.342L107.176 43.3629L106.399 42.9742L105.719 42.294L105.136 41.128L104.941 40.4478L104.844 38.8932L105.136 36.6583L105.816 34.1319L106.788 31.8971L107.662 30.4395L108.634 29.0792L107.468 29.7594L106.01 30.2452L104.456 30.5367L103.192 31.7999L102.415 32.4801L100.86 33.7433L99.2085 34.9093L97.3623 36.0753L94.5444 37.5328L94.0586 37.8243L93.0869 39.0875L91.9209 40.2535L90.4634 41.3224L88.9087 42.1969L87.4512 42.7799L85.7993 43.2657L83.7588 43.5572L81.9126 43.46L80.5522 43.1685L79.3862 42.6827L78.8032 42.294L78.4146 42.0997L78.2202 43.3629L77.7344 46.8609L77.4429 50.1646L77.1514 54.7315L77.0542 55.606L73.459 56.2862L69.9609 56.8692V55.2174L70.3496 51.7193L70.9326 47.8326L71.8071 43.2657L72.5845 39.6705L73.5562 35.5894L74.4307 32.1886L74.625 31.3141L73.5562 32.1886L72.0015 33.4517L70.9326 34.3263L69.2808 35.6866L67.1431 37.4356L63.8394 40.1563L62.2847 41.3224L60.9243 42.0997L59.564 42.6827L57.6206 43.2657L56.5518 43.46L54.7056 43.5572L52.9565 43.3629L51.4019 42.877L50.4302 42.294L50.2358 42.0997L50.0415 42.5855L49.5557 45.6949L49.167 49.2901L48.7783 55.3145L48.6812 55.606L46.7378 55.9947L41.5879 56.8692V55.8004L41.9766 51.9137L42.6567 47.5411L43.4341 43.46L44.3086 39.379L45.0859 36.1725L46.252 31.4112L45.0859 32.6744L44.4058 33.4517L43.2397 34.8121L42.3652 35.7838L41.6851 36.5611L40.8105 37.5328L39.936 38.6017L38.8672 39.7677L37.9927 40.6422L36.7295 41.6139L35.0776 42.5855L33.2314 43.2657L32.1626 43.46H31.0938L30.1221 43.1685L29.5391 42.7799L29.0532 42.294L28.4702 41.4195L27.9844 39.962L27.79 38.213V36.3668L26.9155 37.7271L25.8467 39.0875L24.9722 40.0592L24.1948 40.7393L22.7373 41.8082L20.8911 42.7799L19.4336 43.2657L18.4619 43.46H17.1987L16.2271 43.2657L15.061 42.7799L13.9922 41.9054L13.2148 40.8365L12.5347 39.4762L12.0488 37.8243L11.8545 36.5611V34.5206L12.2432 31.8971L12.8262 29.6622L13.6035 27.6217L14.5752 25.8726L15.7412 24.318L17.1016 22.9576L18.1704 22.1803L19.5308 21.4029L20.7939 20.8199L22.8345 20.2369L24.0977 20.0426H27.0127L28.373 20.2369L29.6362 20.6256L30.7051 21.2086L31.4824 21.9859L32.0654 23.0548H32.5513L33.4258 21.9859L34.3003 21.1114L35.6606 20.3341L36.6323 20.0426H37.8955L36.8267 22.9576L35.855 26.3585L34.3003 32.5772L33.7173 35.3951L33.5229 36.7555V38.213L33.8145 39.1847L34.2031 39.4762L35.0776 39.379L36.1465 38.796L37.4097 37.63L38.3813 36.6583L39.0615 35.8809L40.1304 34.7149L41.0049 33.6461L42.2681 32.1886L43.5312 30.5367L44.5029 29.2735L45.7661 27.4273L46.835 25.7755L48.1953 23.4434L48.9727 21.8888L49.167 21.5973L52.7622 20.7227L55.5801 20.0426H55.8716L55.3857 22.6661L55.2886 23.4434L56.0659 22.3746L56.9404 21.5001L57.9121 20.8199L58.981 20.3341L60.0498 20.0426H62.6733L64.0337 20.3341L65.5884 21.1114L66.5601 21.9859L67.1431 22.6661L67.9204 24.1236L68.4062 25.7755L68.5034 26.3585V29.565L68.2119 31.7999L67.9204 33.1602V33.4517L69.2808 32.2857L70.9326 30.6339L71.6128 29.8565L72.6816 28.5934L74.1392 26.65L75.4023 24.901L76.4712 23.2491L77.3457 21.6944L79.0947 21.2086L83.856 20.0426H84.1475L84.0503 21.0143L83.5645 23.5406L84.2446 22.5689L85.022 21.6944L86.2852 20.8199L87.5483 20.2369L88.4229 20.0426H91.0464L92.4067 20.3341L93.9614 21.1114L95.1274 22.1803L95.8076 23.2491L96.2935 24.2208L96.7793 25.9698L96.8765 26.5528V29.1764L96.585 31.5084L96.0991 33.7433L95.9048 34.2291L97.0708 33.4517L98.334 32.4801L99.5972 31.4112L100.86 30.2452L101.055 29.9537L100.569 29.7594L99.8887 29.0792L99.3057 27.9132L99.1113 26.8443L99.2085 25.5811L99.7915 23.9293L100.472 22.7633L101.346 21.7916L102.124 21.1114L103.484 20.4312L105.039 20.0426H106.593L107.662 20.2369L108.537 20.7227L109.12 21.4029L109.314 21.8888V23.2491L108.925 24.6095L108.148 26.1642L106.982 27.7188L108.148 27.3302L109.12 26.7472L110.286 25.6783L111.16 24.7066L111.84 23.735L112.715 22.2774L113.784 21.0143L114.755 20.2369L115.144 20.0426L116.019 20.1397L116.31 20.4312V21.2086L115.241 23.4434L114.172 25.8726L113.104 28.6905L112.326 31.5084L112.035 33.2574L111.938 35.0064L112.132 36.5611L112.423 37.5328L112.812 38.1158L113.104 38.3101H114.172L115.241 37.7271L116.019 36.9498L116.796 36.2696L119.517 33.5489L119.905 31.3141L120.391 29.3707L121.071 27.5245L121.849 25.9698L122.723 24.6095L123.889 23.2491L124.861 22.3746L126.318 21.4029L127.582 20.8199L129.039 20.3341L130.011 20.1397L131.663 20.0426L133.412 20.1397L135.063 20.5284L136.424 21.1114L137.396 21.8888L137.979 22.5689L138.27 23.2491L138.367 23.735V24.901L137.979 26.4557L137.201 27.816L136.132 29.1764L135.063 30.2452L133.606 31.3141L131.565 32.3829L129.622 33.0631L127.387 33.5489L126.513 33.6461H125.638L125.735 35.2979L126.124 36.8526L126.61 37.8243L127.484 38.796L128.845 39.4762L129.622 39.6705H131.76L133.412 39.2818L134.966 38.6017L136.132 37.8243L137.201 36.9498L138.076 36.0753L139.047 34.8121L139.533 33.9376L139.922 31.6056L140.602 29.1764L141.477 27.1358L142.254 25.7755L143.226 24.5123L144.294 23.3463L145.655 22.2774L146.724 21.5973L148.764 20.7227L150.61 20.2369L152.165 20.0426H154.206L155.857 20.2369L157.121 20.6256L158.287 21.2086L159.064 21.9859L159.647 23.0548H160.23L161.104 21.8888L162.076 21.0143L163.631 20.2369L164.505 20.0426H165.38L165.283 20.6256L164.603 22.5689L163.728 25.3868L162.756 29.0792L161.785 33.1602L161.493 35.2979V37.4356L161.688 38.3101L162.076 38.8932L162.465 39.0875L163.145 38.9903L163.922 38.6017L166.546 35.9781L167.226 35.2008L168.295 34.0348L168.684 33.4517L168.878 30.8282L169.364 27.233L170.044 23.5406L170.724 20.6256L171.599 17.6134L172.667 14.6012L173.736 12.2691L174.708 10.4229L175.777 8.86826L176.554 7.89658L177.623 6.73056L178.789 5.75888L180.344 4.88437L181.898 4.30136L183.064 4.10703Z" fill="#E2E8F1"/>
<path d="M86.9653 24.318H87.7427L88.6172 24.7066L89.103 25.1925L89.5889 26.1642L89.7832 27.0387V29.9537L89.4917 31.7999L88.8115 34.4234L88.0342 36.464L87.1597 38.1158L86.2852 39.2818L85.4106 40.1563L84.2446 40.8365L83.0786 41.128L82.1069 41.0309L81.5239 40.7393L81.1353 40.2535L80.7466 39.2818L80.5522 38.0186V35.881L80.8438 33.5489L81.4268 31.2169L82.2041 29.0792L83.0786 27.4273L83.9531 26.2613L85.022 25.1925L85.9937 24.6095L86.9653 24.318Z" fill="#0E172B"/>
<path d="M58.6895 24.318L59.7583 24.4151L60.5356 24.901L61.1187 25.7755L61.4102 26.7472L61.5073 27.5245V29.3707L61.2158 31.5084L60.6328 33.8404L59.9526 35.7838L59.1753 37.3385L58.3008 38.6988L57.3291 39.7677L56.3574 40.4478L55.1914 40.9337L54.8027 41.0309H53.7339L53.1509 40.6422L52.7622 40.1563L52.3735 39.0875L52.1792 37.4356L52.2764 35.2008L52.5679 33.2574L53.1509 31.0226L53.9282 28.982L54.8027 27.3302L55.6772 26.1642L56.5518 25.2896L57.9121 24.5123L58.6895 24.318Z" fill="#0E172B"/>
<path d="M26.041 22.4718H27.5957L28.4702 22.8604L29.0532 23.5406L29.3447 24.4151V26.067L28.9561 27.6217L28.1787 29.8565L26.9155 32.7716L25.6523 35.0064L24.7778 36.1725L23.709 37.3385L22.6401 38.1158L21.96 38.4073L21.4741 38.5045H20.5996L20.0166 38.213L19.5308 37.63L19.2393 36.8526L19.1421 36.2696V34.5206L19.5308 32.0914L20.1138 29.7594L20.9883 27.4273L21.8628 25.7755L22.8345 24.5123L23.709 23.6378L24.7778 22.9576L25.6523 22.5689L26.041 22.4718Z" fill="#0E172B"/>
<path d="M153.914 22.4718H154.983L155.857 22.7633L156.538 23.3463L156.926 24.318V26.2613L156.44 28.1075L155.566 30.4395L154.691 32.3829L153.914 33.9376L152.942 35.4923L152.165 36.464L151.388 37.3385L150.319 38.1158L149.25 38.5045H148.084L147.404 38.1158L146.918 37.1441L146.724 36.1725V34.7149L147.209 31.7999L147.89 29.2735L148.667 27.3302L149.444 25.8727L150.222 24.8038L150.902 24.0265L152.068 23.1519L153.137 22.6661L153.914 22.4718Z" fill="#0E172B"/>
<path d="M183.453 7.70224H184.133L184.619 8.18808L184.716 8.47958V10.0343L184.328 11.7833L183.745 13.7267L182.676 16.3502L181.413 18.9737L180.149 21.2086L178.789 23.2491L177.915 24.4151L176.846 25.6783L176.36 25.9698H176.166L176.068 25.7755L176.166 24.5123L176.943 20.8199L177.72 17.8077L178.595 14.9898L179.372 12.9493L180.538 10.5201L181.413 9.25693L182.19 8.38242L183.162 7.79941L183.453 7.70224Z" fill="#0E172B"/>
<path d="M130.399 22.4718H131.663L132.44 22.8604L132.829 23.3463L133.12 24.0265V25.6783L132.829 26.8443L132.148 28.2047L131.08 29.3707L130.108 30.0509L129.039 30.5367L127.582 30.9254L126.999 31.0226H125.541L125.638 29.2735L126.124 27.0387L126.901 25.2896L127.679 24.2208L128.359 23.5406L129.428 22.8604L130.399 22.4718Z" fill="#0E172B"/>
<path d="M105.233 22.0831H106.496L107.176 22.5689L107.273 23.0548L106.982 23.9293L106.01 25.2896L104.65 26.7472L103.775 27.5245L102.901 27.4273L102.318 27.0387L102.026 26.3585L102.124 25.1925L102.512 24.2208L103.29 23.1519L104.358 22.3746L105.233 22.0831Z" fill="#0E172B"/>
</g>
<defs>
<clipPath id="clip0_412_158">
<rect width="199" height="59.9914" fill="white" transform="translate(0 0.298096)"/>
</clipPath>
</defs>
</svg>
