<svg width="104" height="60" viewBox="0 0 104 60" fill="none" xmlns="http://www.w3.org/2000/svg">
<g clip-path="url(#clip0_412_134)">
<path fill-rule="evenodd" clip-rule="evenodd" d="M83.2928 1.4742e-05V45.1105H72.5376V2.25555L83.2928 1.4742e-05ZM52.6704 49.3857C55.6405 49.3857 58.048 51.7618 58.048 54.6928C58.048 57.6238 55.6405 60 52.6704 60C49.7005 60 47.2929 57.6238 47.2929 54.6928C47.2929 51.7618 49.7005 49.3857 52.6704 49.3857ZM52.6704 12.8108C61.8274 12.8108 69.2664 20.1376 69.2664 29.1892C69.2664 38.2408 61.8272 45.5676 52.6704 45.5676C43.4987 45.5676 36.0746 38.2408 36.0746 29.1892C36.0746 20.1376 43.5136 12.8108 52.6704 12.8108ZM52.6704 34.4962C55.643 34.4962 58.048 32.1228 58.048 29.1892C58.048 26.2555 55.643 23.8821 52.6704 23.8821C49.6978 23.8821 47.2929 26.2555 47.2929 29.1892C47.2929 32.1228 49.6978 34.4962 52.6704 34.4962ZM18.8365 34.4962C20.6888 34.4962 22.1975 33.0073 22.1975 31.1793C22.1975 29.3514 20.6888 27.8623 18.8365 27.8623H10.7701V34.4962H18.8365ZM10.7701 10.6143V17.2482H16.7452C18.5975 17.2482 20.1062 15.7591 20.1062 13.9312C20.1062 12.1032 18.5975 10.6143 16.7452 10.6143H10.7701ZM28.7402 21.258C31.3394 23.7936 32.9526 27.3022 32.9377 31.1793C32.9377 38.8747 26.6192 45.1105 18.8216 45.1105H0V0H16.7303C24.5279 0 30.8464 6.23587 30.8464 13.9312C30.8464 16.6143 30.0846 19.1352 28.7402 21.258ZM103.608 24.0295H98.2456V32.3588C98.2456 34.8797 99.0672 36.7371 101.218 36.7371C102.607 36.7371 103.623 36.4275 103.623 36.4275V44.2409C103.623 44.2409 101.397 45.5676 98.3799 45.5676H98.2456C98.111 45.5676 97.9915 45.5529 97.8571 45.5529H97.7525C97.6928 45.5529 97.618 45.538 97.5583 45.538C91.5533 45.2284 87.4753 41.4987 87.4753 35.0271V7.56265L98.2306 5.30712V13.4152H103.608V24.0295Z" fill="#E2E8F1"/>
</g>
<defs>
<clipPath id="clip0_412_134">
<rect width="103.623" height="60" fill="white"/>
</clipPath>
</defs>
</svg>
