<svg width="48" height="48" viewBox="0 0 48 48" fill="none" xmlns="http://www.w3.org/2000/svg">
<title>Fastlane</title>
<g clip-path="url(#clip0_341_41)">
<path d="M16.288 38.3641C16.076 37.8746 15.7327 37.4533 15.296 37.1469C14.8594 36.8405 14.3464 36.661 13.814 36.6281L10.584 26.6761L9.84401 24.4061C9.81001 24.4261 9.62001 24.5101 9.58401 24.5261C9.56801 24.5461 9.53401 24.5461 9.51801 24.5621C9.4688 24.5816 9.42186 24.6064 9.37801 24.6361C9.31362 24.6727 9.24514 24.7015 9.17401 24.7221C9.08801 24.7541 9.01801 24.7901 8.93401 24.8061C8.86401 24.8261 8.79401 24.8601 8.72601 24.8781C8.64601 24.8981 8.56001 24.9281 8.47401 24.9461C8.40601 24.9661 8.33801 24.9801 8.26801 24.9981C8.17834 25.0202 8.08636 25.0316 7.99401 25.0321C7.92401 25.0521 7.85401 25.0521 7.78801 25.0661C7.73201 25.0661 7.68001 25.0661 7.62801 25.0861H7.30801C7.20401 25.0861 7.11801 25.0861 7.01601 25.0661C6.94601 25.0661 6.87601 25.0661 6.82601 25.0461L6.49601 24.9961C6.44401 24.9761 6.39201 24.9761 6.32401 24.9621C6.15536 24.9309 5.98846 24.8908 5.82401 24.8421C5.19719 24.6452 4.61536 24.3266 4.11183 23.9046C3.60831 23.4826 3.19297 22.9653 2.8896 22.3826C2.58623 21.7998 2.40078 21.1629 2.34388 20.5084C2.28699 19.8538 2.35975 19.1945 2.55801 18.5681C3.40001 15.9401 6.20401 14.4601 8.83401 15.3001L9.52201 13.1001C7.66969 12.5218 5.66379 12.6998 3.94231 13.5954C2.22084 14.491 0.92365 16.0314 0.334006 17.8801C-0.241342 19.7314 -0.0617953 21.735 0.833531 23.4545C1.72886 25.1739 3.26741 26.4699 5.11401 27.0601C6.16632 27.3745 7.27343 27.4618 8.36201 27.3161L11.63 37.3861C11.4539 37.5442 11.298 37.7236 11.166 37.9201C10.9453 38.2399 10.7902 38.6002 10.7097 38.9803C10.6291 39.3604 10.6247 39.7527 10.6967 40.1345C10.7686 40.5163 10.9156 40.8801 11.129 41.2048C11.3424 41.5295 11.6181 41.8086 11.94 42.0261C12.3031 42.277 12.7181 42.443 13.1541 42.5116C13.59 42.5803 14.0359 42.5499 14.4586 42.4227C14.8812 42.2955 15.2698 42.0748 15.5955 41.777C15.9212 41.4791 16.1757 41.1117 16.34 40.7021C16.6203 39.9452 16.5988 39.1096 16.28 38.3681L16.288 38.3641ZM23.802 0.824105C22.8409 0.833509 21.8911 1.0323 21.0069 1.40911C20.1227 1.78591 19.3215 2.33334 18.6491 3.02008C17.9766 3.70682 17.4462 4.5194 17.0881 5.41132C16.7299 6.30325 16.5512 7.25703 16.562 8.21811C16.582 9.29811 16.856 10.3981 17.322 11.3781L8.76201 17.6001C8.55597 17.482 8.33637 17.3893 8.10801 17.3241C7.73677 17.2137 7.34739 17.1778 6.96222 17.2184C6.57706 17.2589 6.2037 17.3752 5.86361 17.5605C5.52351 17.7458 5.22338 17.9964 4.98044 18.298C4.73751 18.5997 4.55657 18.9463 4.44801 19.3181C3.98201 20.8781 4.87601 22.5101 6.44001 22.9781C6.64601 23.0421 6.85401 23.0781 7.06001 23.0781C7.86801 23.1281 8.66001 22.8581 9.24001 22.3181C9.64001 21.9581 9.94801 21.5181 10.1 20.9621C10.2494 20.4653 10.2618 19.9374 10.136 19.4341L18.61 13.2741L20.534 11.8701C20.5 11.8341 20.38 11.6981 20.346 11.6641L20.294 11.6121C20.26 11.5761 20.224 11.5401 20.19 11.4921C20.1364 11.44 20.0894 11.3816 20.05 11.3181C20.0016 11.2478 19.9509 11.1791 19.898 11.1121C19.846 11.0601 19.812 10.9921 19.758 10.9401C19.7081 10.8697 19.6627 10.7962 19.622 10.7201C19.5886 10.6522 19.5484 10.5879 19.502 10.5281C19.4549 10.4519 19.4147 10.3715 19.382 10.2881C19.348 10.2201 19.314 10.1681 19.296 10.0981L19.244 9.95811C19.232 9.92411 19.216 9.87411 19.198 9.83811C19.178 9.77011 19.148 9.6981 19.13 9.6501C19.098 9.5621 19.08 9.4581 19.046 9.3561L18.996 9.1641C18.976 9.0641 18.962 8.94411 18.944 8.83811C18.944 8.78811 18.924 8.73811 18.908 8.66811C18.8867 8.49557 18.8754 8.32195 18.874 8.14811C18.8612 6.82197 19.3754 5.545 20.3035 4.59772C21.2317 3.65045 22.4979 3.11036 23.824 3.09611C25.1501 3.08331 26.4271 3.59746 27.3744 4.52561C28.3217 5.45376 28.8618 6.71999 28.876 8.0461L31.18 8.02611C31.152 4.02011 27.84 0.772105 23.8 0.820105L23.802 0.824105ZM47.618 18.1521C46.9975 16.3148 45.6741 14.7984 43.9377 13.935C42.2012 13.0717 40.1934 12.9318 38.354 13.5461C37.3188 13.9072 36.3739 14.4878 35.584 15.2481L27.024 9.0301C27.076 8.8041 27.092 8.5641 27.092 8.3221C27.0669 7.54209 26.7354 6.8034 26.1693 6.26617C25.6033 5.72893 24.8483 5.43644 24.068 5.45211C23.2873 5.47669 22.5478 5.80826 22.0101 6.37481C21.4723 6.94137 21.1798 7.69717 21.196 8.47811C21.2127 8.98124 21.3583 9.47166 21.6188 9.9024C21.8793 10.3331 22.2461 10.6898 22.684 10.9381C23.148 11.1941 23.684 11.3481 24.248 11.3321C24.782 11.3121 25.298 11.1601 25.708 10.8841L34.186 17.0381L36.11 18.4481L36.25 18.2081C36.266 18.1921 36.266 18.1581 36.282 18.1401C36.298 18.0861 36.332 18.0521 36.35 18.0001C36.384 17.9321 36.418 17.8801 36.45 17.8121C36.5072 17.7446 36.5544 17.6691 36.59 17.5881L36.71 17.4181C36.762 17.3481 36.814 17.2781 36.882 17.2101C36.934 17.1581 36.968 17.1101 37.022 17.0381L37.21 16.8481L37.364 16.6921C37.4 16.6581 37.434 16.6241 37.484 16.5921C37.52 16.5561 37.556 16.5381 37.59 16.5041C37.6393 16.4537 37.6977 16.413 37.762 16.3841C37.842 16.3321 37.93 16.2801 38.002 16.2281C38.0548 16.1896 38.111 16.1562 38.17 16.1281C38.274 16.0741 38.358 16.0221 38.462 15.9681C38.514 15.9521 38.566 15.9181 38.616 15.9021C39.2539 15.613 39.9452 15.4606 40.6455 15.4547C41.3458 15.4488 42.0396 15.5894 42.6823 15.8676C43.325 16.1459 43.9024 16.5555 44.3773 17.0701C44.8522 17.5848 45.2142 18.1932 45.44 18.8561C45.8611 20.1138 45.7666 21.4872 45.1774 22.6754C44.5881 23.8637 43.5521 24.77 42.296 25.1961L43.036 27.3761C46.836 26.1221 48.896 21.9761 47.624 18.1461L47.618 18.1521ZM43.286 19.3921C43.024 18.6562 42.4807 18.0544 41.7754 17.7188C41.07 17.3831 40.2603 17.3412 39.524 17.6021C39.3255 17.6756 39.1352 17.7694 38.956 17.8821C38.268 18.3101 37.788 19.0021 37.632 19.7721C37.532 20.2881 37.546 20.8381 37.736 21.3721C37.924 21.8861 38.216 22.2981 38.612 22.6261L35.38 32.5781L34.64 34.8461C34.676 34.8461 34.864 34.8981 34.916 34.8981C34.95 34.8981 34.968 34.8981 35.002 34.9181C35.058 34.9341 35.11 34.9341 35.162 34.9521C35.232 34.9721 35.302 34.9861 35.37 35.0021C35.456 35.0221 35.542 35.0541 35.63 35.0721C35.696 35.0921 35.766 35.1061 35.834 35.1401L36.074 35.2401C36.144 35.2761 36.214 35.2941 36.28 35.3281C36.36 35.3621 36.432 35.4141 36.52 35.4481C36.586 35.4821 36.64 35.5161 36.706 35.5521C36.758 35.5721 36.792 35.6021 36.826 35.6381C36.862 35.6581 36.896 35.6861 36.93 35.7041C36.982 35.7401 37.05 35.7741 37.102 35.8241C37.1852 35.8782 37.2612 35.9427 37.328 36.0161C37.378 36.0481 37.428 36.1001 37.482 36.1361C37.568 36.2021 37.636 36.2881 37.722 36.3761C37.762 36.4081 37.808 36.4441 37.842 36.4961C37.962 36.6161 38.062 36.7561 38.17 36.8901C38.9578 37.9554 39.2914 39.2894 39.098 40.6002C38.9046 41.9109 38.1999 43.0917 37.138 43.8841C36.0722 44.6729 34.7372 45.0074 33.4253 44.8144C32.1135 44.6213 30.9315 43.9165 30.138 42.8541L28.284 44.2261C30.694 47.4581 35.284 48.1461 38.516 45.7401C41.746 43.3341 42.436 38.7461 40.028 35.5161C39.3649 34.6412 38.5211 33.9195 37.554 33.4001L40.818 23.3281C41.2633 23.2812 41.6921 23.1338 42.0721 22.8971C42.4522 22.6603 42.7735 22.3404 43.0119 21.9614C43.2503 21.5824 43.3996 21.1543 43.4484 20.7092C43.4973 20.2641 43.4445 19.8138 43.294 19.3921H43.286ZM36.4 37.8101C36.0958 37.4123 35.6935 37.1003 35.2324 36.9047C34.7714 36.709 34.2675 36.6365 33.77 36.6941C33.2227 36.7408 32.7019 36.9497 32.274 37.2941C31.844 37.6201 31.534 38.0501 31.344 38.5141H18.486C18.486 38.5481 18.506 38.7541 18.526 38.7881C18.526 38.8241 18.526 38.8401 18.546 38.8741C18.546 38.9261 18.566 38.9781 18.566 39.0301C18.566 39.0981 18.58 39.1701 18.58 39.2541C18.58 39.3401 18.58 39.4261 18.6 39.5101V39.7341C18.6 39.8201 18.58 39.9061 18.58 39.9941C18.58 40.0621 18.56 40.1301 18.56 40.2141C18.54 40.3021 18.52 40.3881 18.52 40.4901C18.506 40.5601 18.506 40.6301 18.49 40.6961C18.47 40.7461 18.47 40.7961 18.456 40.8561C18.436 40.8841 18.436 40.9361 18.42 40.9761C18.4 41.0361 18.386 41.1081 18.368 41.1761C18.334 41.2621 18.3 41.3661 18.264 41.4561C18.244 41.5201 18.214 41.5761 18.196 41.6401C18.1476 41.7389 18.0962 41.8363 18.042 41.9321C18.01 41.9821 17.994 42.0321 17.976 42.0861C17.8927 42.2348 17.8005 42.3784 17.7 42.5161C16.9283 43.5955 15.7599 44.3245 14.4512 44.5431C13.1425 44.7617 11.8006 44.452 10.72 43.6821C10.1849 43.3008 9.73013 42.8179 9.38171 42.2608C9.03329 41.7038 8.79803 41.0835 8.68938 40.4355C8.58073 39.7875 8.60081 39.1244 8.74848 38.4842C8.89615 37.8439 9.16851 37.2391 9.55001 36.7041L7.67601 35.3641C6.55446 36.9444 6.10567 38.905 6.42814 40.8158C6.7506 42.7266 7.81797 44.4314 9.39601 45.5561C10.9758 46.6781 12.9363 47.1271 14.8469 46.8046C16.7575 46.4821 18.462 45.4144 19.586 43.8361C20.222 42.9461 20.634 41.8961 20.842 40.8321H31.43C31.6128 41.24 31.8857 41.6012 32.2281 41.8885C32.5706 42.1758 32.9737 42.3817 33.4071 42.4909C33.8406 42.6 34.2932 42.6095 34.7308 42.5186C35.1685 42.4277 35.5798 42.2388 35.934 41.9661C37.154 40.9501 37.394 39.0941 36.398 37.8061L36.4 37.8101Z" fill="#F1F5F9"/>
</g>
<defs>
<clipPath id="clip0_341_41">
<rect width="48" height="48" fill="white"/>
</clipPath>
</defs>
</svg>
