<svg width="41" height="40" viewBox="0 0 41 40" fill="none" xmlns="http://www.w3.org/2000/svg">
<title>GitHub</title>
<g clip-path="url(#clip0_367_7)">
<path fill-rule="evenodd" clip-rule="evenodd" d="M20.4404 0C9.41388 0 0.5 9.16667 0.5 20.5071C0.5 29.5721 6.21143 37.2454 14.1347 39.9612C15.1253 40.1654 15.4882 39.52 15.4882 38.9771C15.4882 38.5017 15.4555 36.8721 15.4555 35.1742C9.90857 36.3967 8.75347 32.7296 8.75347 32.7296C7.86204 30.3529 6.54122 29.7421 6.54122 29.7421C4.72571 28.4858 6.67347 28.4858 6.67347 28.4858C8.68735 28.6217 9.74408 30.5908 9.74408 30.5908C11.5265 33.7142 14.3988 32.8317 15.5543 32.2883C15.7192 30.9642 16.2478 30.0475 16.809 29.5383C12.3849 29.0629 7.7302 27.2975 7.7302 19.4204C7.7302 17.1796 8.52204 15.3462 9.77673 13.9204C9.57878 13.4112 8.88531 11.3058 9.9751 8.48792C9.9751 8.48792 11.6588 7.94458 15.4551 10.5929C17.0804 10.144 18.7566 9.91567 20.4404 9.91375C22.1241 9.91375 23.8404 10.1517 25.4253 10.5929C29.222 7.94458 30.9057 8.48792 30.9057 8.48792C31.9955 11.3058 31.3016 13.4112 31.1037 13.9204C32.3914 15.3462 33.1506 17.1796 33.1506 19.4204C33.1506 27.2975 28.4959 29.0287 24.0388 29.5383C24.7653 30.1833 25.3922 31.4054 25.3922 33.3408C25.3922 36.0908 25.3596 38.2979 25.3596 38.9767C25.3596 39.52 25.7229 40.1654 26.7131 39.9617C34.6363 37.245 40.3478 29.5721 40.3478 20.5071C40.3804 9.16667 31.4339 0 20.4404 0Z" fill="#F9FAFC"/>
</g>
<defs>
<clipPath id="clip0_367_7">
<rect width="40" height="40" fill="white" transform="translate(0.5)"/>
</clipPath>
</defs>
</svg>
