<svg width="48" height="48" viewBox="0 0 48 48" fill="none" xmlns="http://www.w3.org/2000/svg">
<title>iOS</title>
<path d="M2.2 12.1001C0.972 12.1001 3.17619e-08 13.0601 3.17619e-08 14.2601C-4.91928e-05 14.5472 0.0571182 14.8313 0.168161 15.096C0.279204 15.3607 0.441895 15.6007 0.646725 15.8018C0.851556 16.0029 1.09442 16.1611 1.36111 16.2673C1.62781 16.3735 1.913 16.4254 2.2 16.4201C3.44 16.4201 4.42 15.4601 4.42 14.2601C4.42 13.0601 3.44 12.1001 2.2 12.1001ZM17.42 12.1401C10.7 12.1401 6.5 16.7201 6.5 24.0001C6.5 31.3401 10.7 35.9001 17.42 35.9001C24.1 35.9001 28.32 31.3401 28.32 24.0001C28.32 16.7201 24.1 12.1401 17.42 12.1401ZM39.1 12.1401C34.1 12.1401 30.54 14.9001 30.54 19.0001C30.54 22.2601 32.56 24.3001 36.8 25.2801L39.78 26.0001C42.68 26.6601 43.86 27.6201 43.86 29.2801C43.86 31.2001 41.92 32.5601 39.16 32.5601C36.34 32.5601 34.22 31.1801 34 29.0601H30C30.16 33.3001 33.64 35.9001 38.92 35.9001C44.5 35.9001 48 33.1601 48 28.8001C48 25.3801 46 23.4401 41.36 22.3801L38.7 21.7801C35.88 21.1001 34.72 20.2001 34.72 18.6801C34.72 16.7601 36.48 15.4801 39.08 15.4801C41.7 15.4801 43.5 16.7801 43.7 18.9201H47.62C47.52 14.8801 44.18 12.1401 39.1 12.1401ZM17.42 15.6401C21.5 15.6401 24.12 18.9001 24.12 24.0001C24.12 29.1401 21.5 32.4001 17.42 32.4001C13.3 32.4001 10.7 29.1401 10.7 24.0001C10.7 18.9001 13.3 15.6401 17.42 15.6401ZM0.222 18.6201V35.5201H4.2V18.6201H0.22H0.222Z" fill="#F1F5F9"/>
</svg>
