<svg width="74" height="61" viewBox="0 0 74 61" fill="none" xmlns="http://www.w3.org/2000/svg">
<g clip-path="url(#clip0_412_177)">
<path d="M36.7661 60.2979C36.244 60.3016 35.7307 60.1674 35.2761 59.9086C31.3883 57.6469 2.59376 39.4943 1.50647 38.9403C0.67877 38.5518 0.113617 37.7568 0.0164587 36.8434V11.3814C-0.00504966 10.4314 0.462207 9.53658 1.25282 9.01533L1.46124 8.89527C4.24694 7.15779 13.5719 1.43678 15.0464 0.612785C15.3846 0.4107 15.7702 0.302574 16.1641 0.2981C16.5327 0.302574 16.8953 0.395041 17.2217 0.567297C17.2217 0.567297 30.2706 9.11973 32.2671 9.88333C33.6674 10.5306 35.1952 10.8527 36.7357 10.8266C38.4823 10.8632 40.2074 10.4396 41.7405 9.59847C43.6918 8.56493 56.16 0.612039 56.2942 0.612039C56.6087 0.42114 56.9699 0.322708 57.337 0.327182C57.7308 0.329419 58.1165 0.437545 58.454 0.641867C60.1524 1.58518 71.712 8.6999 72.203 9.01384C73.0159 9.50675 73.5091 10.3956 73.4994 11.3501V36.812C73.4082 37.7278 72.8416 38.5257 72.0102 38.909C70.9229 39.5077 42.2174 57.6603 38.2546 59.8773C37.8044 60.148 37.2905 60.2926 36.7661 60.2979Z" fill="#F1F5F9"/>
<path d="M36.617 60.298H36.766C37.2882 60.3017 37.8014 60.1675 38.2553 59.9088C42.1431 57.6471 70.9228 39.4945 72.0108 38.9404C72.8422 38.5571 73.4088 37.7585 73.5001 36.8435V11.3816C73.5053 10.9506 73.4081 10.5248 73.2168 10.1385L36.6162 30.3425V60.298" fill="#324158"/>
<path d="M36.4895 59.9391H36.342C35.8254 59.9427 35.3177 59.8099 34.8686 59.5539C31.0222 57.3163 2.54915 39.3572 1.47345 38.809C0.650894 38.4298 0.0902941 37.6404 4.09003e-05 36.7344V11.5438C-0.00509546 11.1174 0.0910251 10.6961 0.280337 10.3139L36.491 30.3034V59.9391" fill="#90A1B9"/>
<path d="M18.8602 19.7167H22.1968V35.8617H27.9505V39.048H18.8745L18.8602 19.7167Z" fill="#F9FAFC"/>
<path d="M35.6805 24.5606C37.4479 24.538 39.1254 25.3495 40.2124 26.7506V24.8482H43.3262V39.0786H40.2124V37.1763C39.1254 38.5794 37.4479 39.3888 35.6805 39.3662C31.7984 39.3662 28.8521 36.032 28.8521 31.9603C28.8521 27.8866 31.7984 24.5606 35.6805 24.5606ZM36.2465 27.41C33.7251 27.41 32.0558 29.4048 32.0558 31.9583C32.0558 34.5139 33.7517 36.5148 36.2465 36.5148C38.7392 36.5148 40.4351 34.5221 40.4351 31.9583C40.4351 29.3965 38.7658 27.41 36.2465 27.41Z" fill="#F9FAFC"/>
<path d="M45.7474 36.6052L53.1684 27.6894H45.8577V24.8462H57.1895V27.3525L49.795 36.2334H57.357V39.0765H45.7454V36.6052" fill="#F9FAFC"/>
</g>
<defs>
<clipPath id="clip0_412_177">
<rect width="73.5004" height="60" fill="white" transform="translate(0 0.298096)"/>
</clipPath>
</defs>
</svg>
