<svg width="41" height="40" viewBox="0 0 41 40" fill="none" xmlns="http://www.w3.org/2000/svg">
<title>LinkedIn</title>
<g clip-path="url(#clip0_367_9)">
<path d="M9.81097 12.8684H1.7809C1.42452 12.8684 1.13574 13.1573 1.13574 13.5136V39.3107C1.13574 39.6671 1.42452 39.9559 1.7809 39.9559H9.81097C10.1674 39.9559 10.4561 39.6671 10.4561 39.3107V13.5136C10.4561 13.1573 10.1674 12.8684 9.81097 12.8684Z" fill="#F9FAFC"/>
<path d="M5.79884 0.0439453C2.87703 0.0439453 0.5 2.4184 0.5 5.33698C0.5 8.25685 2.87703 10.6322 5.79884 10.6322C8.71832 10.6322 11.0934 8.25672 11.0934 5.33698C11.0935 2.4184 8.71832 0.0439453 5.79884 0.0439453Z" fill="#F9FAFC"/>
<path d="M30.2361 12.2271C27.0109 12.2271 24.6268 13.6135 23.1807 15.1889V13.5134C23.1807 13.1571 22.8919 12.8682 22.5355 12.8682H14.8454C14.489 12.8682 14.2002 13.1571 14.2002 13.5134V39.3105C14.2002 39.6669 14.489 39.9557 14.8454 39.9557H22.8579C23.2143 39.9557 23.503 39.6669 23.503 39.3105V26.5469C23.503 22.2459 24.6713 20.5703 27.6695 20.5703C30.9348 20.5703 31.1943 23.2565 31.1943 26.7682V39.3107C31.1943 39.6671 31.483 39.9558 31.8394 39.9558H39.8549C40.2113 39.9558 40.5001 39.6671 40.5001 39.3107V25.1605C40.5001 18.765 39.2806 12.2271 30.2361 12.2271Z" fill="#F9FAFC"/>
</g>
<defs>
<clipPath id="clip0_367_9">
<rect width="40" height="40" fill="white" transform="translate(0.5)"/>
</clipPath>
</defs>
</svg>
