<svg width="48" height="48" viewBox="0 0 48 48" fill="none" xmlns="http://www.w3.org/2000/svg">
<title>Node.js</title>
<g clip-path="url(#clip0_341_33)">
<path d="M23.9961 48C23.3541 48 22.7141 47.832 22.1521 47.506L16.2801 44.032C15.4041 43.542 15.8321 43.368 16.1201 43.266C17.2901 42.86 17.5261 42.766 18.7761 42.058C18.9061 41.984 19.0781 42.012 19.2121 42.092L23.7241 44.77C23.8881 44.86 24.1181 44.86 24.2681 44.77L41.8581 34.618C42.0221 34.524 42.1261 34.336 42.1261 34.142V13.842C42.1261 13.644 42.0201 13.458 41.8521 13.358L24.2701 3.21401C24.1081 3.12001 23.8921 3.12001 23.7281 3.21401L6.15006 13.36C5.98006 13.458 5.87206 13.65 5.87206 13.842V34.142C5.87206 34.336 5.98006 34.52 6.15006 34.612L10.9681 37.396C13.5821 38.704 15.1841 37.164 15.1841 35.616V15.574C15.1841 15.29 15.4121 15.068 15.6961 15.068H17.9261C18.2041 15.068 18.4361 15.292 18.4361 15.574V35.616C18.4361 39.106 16.5361 41.106 13.2281 41.106C12.2121 41.106 11.4101 41.106 9.17606 40.004L4.56006 37.35C3.42006 36.692 2.71606 35.46 2.71606 34.142V13.842C2.71606 12.524 3.42206 11.292 4.56006 10.636L22.1501 0.472012C23.2641 -0.157988 24.7421 -0.157988 25.8461 0.472012L43.4341 10.636C44.5741 11.294 45.2821 12.524 45.2821 13.842V34.142C45.2821 35.46 44.5741 36.688 43.4341 37.35L25.8461 47.506C25.2861 47.832 24.6481 48 23.9961 48ZM38.1981 27.986C38.1981 24.186 35.6301 23.174 30.2241 22.46C24.7621 21.738 24.2061 21.364 24.2061 20.086C24.2061 19.03 24.6761 17.62 28.7221 17.62C32.3361 17.62 33.6681 18.398 34.2161 20.834C34.2641 21.064 34.4741 21.232 34.7101 21.232H36.9921C37.1341 21.232 37.2681 21.17 37.3641 21.07C37.4601 20.962 37.5121 20.824 37.4981 20.678C37.1441 16.482 34.3561 14.526 28.7221 14.526C23.7061 14.526 20.7141 16.642 20.7141 20.192C20.7141 24.042 23.6901 25.106 28.5041 25.582C34.2641 26.146 34.7101 26.988 34.7101 28.12C34.7101 30.086 33.1321 30.924 29.4261 30.924C24.7721 30.924 23.7481 29.756 23.4041 27.44C23.3641 27.192 23.1521 27.01 22.8981 27.01H20.6241C20.3421 27.01 20.1161 27.234 20.1161 27.516C20.1161 30.48 21.7281 34.012 29.4261 34.012C35.0021 34.014 38.1981 31.82 38.1981 27.986Z" fill="#F1F5F9"/>
</g>
<defs>
<clipPath id="clip0_341_33">
<rect width="48" height="48" fill="white"/>
</clipPath>
</defs>
</svg>
