<svg width="48" height="48" viewBox="0 0 48 48" fill="none" xmlns="http://www.w3.org/2000/svg">
<title>React</title>
<path d="M28.46 24.0079C28.46 25.1936 27.9891 26.3308 27.1509 27.1694C26.3127 28.008 25.1757 28.4794 23.99 28.4799C22.804 28.4799 21.6665 28.0088 20.8278 27.1701C19.9892 26.3314 19.518 25.194 19.518 24.0079C19.518 22.8222 19.9889 21.6851 20.8271 20.8465C21.6653 20.0078 22.8023 19.5365 23.988 19.5359C25.174 19.5359 26.3115 20.0071 27.1502 20.8457C27.9888 21.6844 28.46 22.8219 28.46 24.0079ZM33.756 2.62793C31.064 2.62793 27.542 4.54793 23.98 7.87193C20.42 4.56593 16.896 2.66793 14.206 2.66793C13.386 2.66793 12.64 2.85393 11.994 3.22393C9.244 4.80993 8.628 9.75193 10.048 15.9539C3.96 17.8339 0 20.8399 0 24.0079C0 27.1879 3.98 30.2019 10.086 32.0679C8.678 38.2939 9.306 43.2439 12.062 44.8279C12.702 45.2019 13.442 45.3779 14.266 45.3779C16.956 45.3779 20.48 43.4579 24.042 40.1299C27.602 43.4379 31.126 45.3359 33.816 45.3359C34.636 45.3359 35.382 45.1559 36.028 44.7859C38.776 43.2019 39.394 38.2599 37.974 32.0559C44.04 30.1919 48 27.1799 48 24.0079C48 20.8279 44.02 17.8139 37.914 15.9439C39.322 9.72393 38.694 4.76993 35.938 3.18393C35.302 2.81593 34.564 2.62993 33.756 2.62793ZM33.746 4.80793V4.81993C34.196 4.81993 34.558 4.90793 34.862 5.07393C36.194 5.83793 36.772 8.74393 36.322 12.4819C36.214 13.4019 36.038 14.3719 35.822 15.3619C33.902 14.8899 31.81 14.5279 29.608 14.2939C28.288 12.4839 26.918 10.8399 25.538 9.39993C28.722 6.43993 31.712 4.81593 33.748 4.80993L33.746 4.80793ZM14.206 4.84793C16.23 4.84793 19.234 6.46393 22.426 9.40793C21.054 10.8479 19.686 12.4819 18.386 14.2919C16.172 14.5259 14.078 14.8879 12.16 15.3679C11.936 14.3879 11.77 13.4399 11.652 12.5279C11.192 8.79193 11.76 5.88793 13.08 5.11393C13.46 4.93393 13.88 4.85793 14.206 4.84793ZM23.97 10.9479C24.88 11.8839 25.79 12.9319 26.69 14.0759C25.81 14.0359 24.91 14.0079 24 14.0079C23.08 14.0079 22.17 14.0279 21.28 14.0759C22.16 12.9319 23.07 11.8859 23.97 10.9479ZM24 16.1999C25.48 16.1999 26.954 16.2679 28.404 16.3859C29.216 17.5499 30.008 18.7919 30.77 20.1059C31.514 21.3859 32.19 22.6859 32.806 23.9979C32.19 25.3079 31.514 26.6179 30.78 27.8979C30.02 29.2179 29.234 30.4739 28.42 31.6379C26.964 31.7639 25.488 31.8339 24 31.8339C22.52 31.8339 21.046 31.7639 19.596 31.6479C18.784 30.4839 17.992 29.2399 17.23 27.9279C16.486 26.6479 15.81 25.3479 15.194 24.0359C15.8 22.7219 16.486 21.4099 17.22 20.1279C17.98 18.8079 18.766 17.5559 19.58 16.3919C21.036 16.2639 22.512 16.1959 24 16.1959V16.1999ZM16.73 16.7079C16.25 17.4619 15.77 18.2339 15.322 19.0279C14.872 19.8079 14.452 20.5919 14.052 21.3759C13.522 20.0639 13.072 18.7559 12.7 17.4819C13.98 17.1819 15.33 16.9139 16.73 16.7079ZM31.25 16.7079C32.64 16.9139 33.98 17.1679 35.262 17.4819C34.902 18.7459 34.452 20.0459 33.942 21.3479C33.542 20.5679 33.122 19.7819 32.662 18.9999C32.212 18.2159 31.732 17.4519 31.252 16.7079H31.25ZM37.376 18.0579C38.344 18.3579 39.264 18.6919 40.126 19.0539C43.59 20.5339 45.83 22.4699 45.83 24.0059C45.82 25.5419 43.58 27.4859 40.116 28.9559C39.276 29.3159 38.356 29.6399 37.406 29.9419C36.846 28.0259 36.114 26.0299 35.206 23.9819C36.106 21.9479 36.826 19.9619 37.376 18.0539V18.0579ZM10.586 18.0659C11.142 19.9859 11.876 21.9799 12.786 24.0259C11.886 26.0599 11.162 28.0459 10.614 29.9539C9.646 29.6539 8.726 29.3179 7.874 28.9539C4.41 27.4799 2.17 25.5419 2.17 24.0059C2.17 22.4699 4.41 20.5219 7.874 19.0539C8.714 18.6939 9.634 18.3699 10.586 18.0659ZM33.942 26.6259C34.472 27.9399 34.922 29.2499 35.294 30.5219C34.014 30.8359 32.662 31.1019 31.262 31.3019C31.742 30.5519 32.222 29.7779 32.672 28.9859C33.122 28.2059 33.54 27.4099 33.942 26.6259ZM14.052 26.6659C14.452 27.4499 14.872 28.2319 15.332 29.0159C15.792 29.7959 16.262 30.5599 16.742 31.3019C15.352 31.0979 14.012 30.8419 12.73 30.5299C13.09 29.2699 13.542 27.9659 14.05 26.6639L14.052 26.6659ZM35.84 32.6399C36.064 33.6259 36.24 34.5759 36.348 35.4859C36.808 39.2219 36.24 42.1259 34.92 42.9019C34.626 43.0819 34.244 43.1579 33.794 43.1579C31.77 43.1579 28.766 41.5439 25.574 38.5979C26.946 37.1579 28.314 35.5259 29.614 33.7179C31.828 33.4819 33.922 33.1199 35.84 32.6399ZM12.18 32.6599C14.1 33.1279 16.192 33.4899 18.394 33.7239C19.714 35.5339 21.084 37.1779 22.464 38.6159C19.274 41.5819 16.28 43.2059 14.244 43.2059C13.804 43.1959 13.432 43.1059 13.138 42.9419C11.806 42.1819 11.228 39.2739 11.678 35.5359C11.786 34.6159 11.964 33.6479 12.18 32.6599ZM21.3 33.9399C22.18 33.9799 23.08 34.0079 23.99 34.0079C24.91 34.0079 25.82 33.9879 26.71 33.9399C25.83 35.0839 24.92 36.1299 24.02 37.0699C23.11 36.1299 22.2 35.0839 21.3 33.9399Z" fill="#F1F5F9"/>
</svg>
