<svg width="48" height="48" viewBox="0 0 48 48" fill="none" xmlns="http://www.w3.org/2000/svg">
<title>Swift</title>
<g clip-path="url(#clip0_341_43)">
<path d="M15.016 0C14.442 0 13.87 0 13.296 0.004C12.814 0.008 12.33 0.01 11.848 0.024C11.584 0.03 11.322 0.042 11.058 0.054C10.2662 0.0847963 9.47718 0.166969 8.696 0.3C7.65489 0.484091 6.64582 0.817531 5.7 1.29C3.80138 2.2558 2.25753 3.79826 1.29 5.696C0.8 6.656 0.49 7.64 0.3 8.696C0.114 9.736 0.056 10.796 0.028 11.848C0.0150356 12.3306 0.00703519 12.8133 0.004 13.296C0 13.87 0 14.442 0 15.016V32.984C0 33.558 0 34.134 0.004 34.708C0.008 35.188 0.014 35.67 0.028 36.152C0.056 37.204 0.114 38.266 0.3 39.304C0.49 40.36 0.8 41.344 1.29 42.304C2.2564 44.2026 3.80056 45.7453 5.7 46.71C6.66 47.198 7.64 47.51 8.696 47.7C9.736 47.886 10.796 47.948 11.848 47.976C12.33 47.99 12.814 47.994 13.296 47.996C13.87 48 14.442 48 15.016 48H32.984C33.558 48 34.13 48 34.704 47.996C35.186 47.994 35.67 47.99 36.152 47.976C37.2094 47.9634 38.2644 47.8712 39.308 47.7C40.3503 47.5207 41.3601 47.187 42.304 46.71C44.2015 45.7441 45.7441 44.2015 46.71 42.304C47.2 41.344 47.51 40.36 47.7 39.304C47.886 38.264 47.948 37.204 47.976 36.152C47.99 35.67 47.994 35.19 47.996 34.708C48 34.134 48 33.558 48 32.984V15.016C48 14.442 48 13.87 47.996 13.296C47.9945 12.8133 47.9879 12.3306 47.976 11.848C47.9634 10.7919 47.8711 9.73823 47.7 8.696C47.5209 7.65237 47.1872 6.64126 46.71 5.696C45.7436 3.79878 44.2012 2.25637 42.304 1.29C41.3601 0.812932 40.3503 0.479264 39.308 0.3C38.2645 0.128613 37.2095 0.0363502 36.152 0.024C35.6707 0.0123655 35.1894 0.00569843 34.708 0.004C34.134 0 33.558 0 32.984 0H15.016ZM27.086 6.82C35.314 11.76 40.176 21.144 38.184 29.082C38.136 29.268 38.084 29.444 38.032 29.626L38.036 29.628C42.16 34.704 41.036 40.144 40.508 39.118C38.364 34.946 34.376 35.982 32.332 37.032C32.1472 37.1418 31.9598 37.2471 31.77 37.348L31.73 37.372L31.726 37.376C27.496 39.622 21.812 39.786 16.102 37.332C11.4527 35.3173 7.52078 31.9446 4.822 27.656C6.12 28.616 7.522 29.46 9.016 30.16C15.054 32.988 21.118 32.782 25.41 30.156C19.302 25.46 14.202 19.34 10.292 14.382C9.54872 13.5148 8.87655 12.5892 8.282 11.614C12.962 15.898 20.358 21.274 23.012 22.766C17.38 16.816 12.416 9.486 12.648 9.72C21.52 18.66 29.704 23.712 29.704 23.712C30.012 23.882 30.244 24.02 30.424 24.138C30.594 23.708 30.744 23.264 30.872 22.802C32.288 17.626 30.692 11.706 27.086 6.818V6.82Z" fill="#F1F5F9"/>
</g>
<defs>
<clipPath id="clip0_341_43">
<rect width="48" height="48" fill="white"/>
</clipPath>
</defs>
</svg>
