<svg width="48" height="48" viewBox="0 0 48 48" fill="none" xmlns="http://www.w3.org/2000/svg">
<title>Vite</title>
<g clip-path="url(#clip0_341_27)">
<path d="M16.5719 21.156L17.5959 3.84196C17.6041 3.70648 17.657 3.57755 17.7465 3.47545C17.8359 3.37336 17.9567 3.30388 18.0899 3.27796L34.7539 0.0119586C34.8569 -0.00825206 34.9632 -0.00167471 35.0629 0.0310595C35.1625 0.0637937 35.2521 0.121586 35.323 0.198892C35.3938 0.276197 35.4437 0.370422 35.4677 0.472523C35.4916 0.574625 35.489 0.681178 35.4599 0.781959L32.3439 11.588C32.315 11.6885 32.3124 11.7949 32.3363 11.8968C32.3602 11.9987 32.4098 12.0927 32.4805 12.17C32.5511 12.2472 32.6403 12.3051 32.7397 12.338C32.839 12.3709 32.9452 12.3778 33.0479 12.358L37.8239 11.438C37.9363 11.416 38.0526 11.426 38.1596 11.4668C38.2666 11.5076 38.3599 11.5776 38.4291 11.6689C38.4983 11.7601 38.5405 11.869 38.5509 11.983C38.5613 12.097 38.5395 12.2117 38.4879 12.314L24.9079 39.414L24.6619 39.794C24.609 39.88 24.5349 39.9509 24.4466 40C24.3583 40.049 24.2589 40.0745 24.1579 40.074C23.8039 40.074 23.4579 39.77 23.5479 39.336L25.7379 28.734C25.7594 28.6301 25.7536 28.5225 25.7209 28.4216C25.6883 28.3206 25.63 28.23 25.5518 28.1584C25.4735 28.0868 25.378 28.0368 25.2746 28.0132C25.1712 27.9896 25.0635 27.9933 24.9619 28.024L22.0959 28.894C21.9945 28.9249 21.8867 28.9289 21.7832 28.9056C21.6797 28.8823 21.5841 28.8326 21.5056 28.7612C21.4272 28.6898 21.3686 28.5992 21.3357 28.4984C21.3028 28.3975 21.2967 28.2899 21.3179 28.186L22.6979 21.436C22.7189 21.3352 22.714 21.2307 22.6839 21.1323C22.6537 21.0339 22.5993 20.9447 22.5255 20.8729C22.4517 20.8011 22.361 20.7491 22.2618 20.7217C22.1626 20.6943 22.0581 20.6923 21.9579 20.716L17.3179 21.788C17.2253 21.8092 17.129 21.8087 17.0367 21.7863C16.9444 21.7639 16.8585 21.7203 16.7859 21.659C16.7133 21.5977 16.656 21.5203 16.6186 21.433C16.5811 21.3457 16.5644 21.2508 16.5699 21.156H16.5719ZM46.5239 5.30396L34.5679 7.47996L33.4799 11.254L37.6339 10.454C37.9559 10.3898 38.2897 10.4262 38.5902 10.5582C38.8908 10.6902 39.1434 10.9115 39.3139 11.192C39.4587 11.4252 39.5409 11.6918 39.5528 11.9661C39.5648 12.2403 39.5059 12.513 39.3819 12.758L25.7999 39.86L25.7739 39.91L25.7439 39.956L25.4999 40.336C25.3557 40.5619 25.1571 40.748 24.9223 40.8773C24.6875 41.0066 24.424 41.0749 24.1559 41.076C23.9132 41.0746 23.6737 41.0198 23.4546 40.9154C23.2354 40.811 23.0419 40.6596 22.8879 40.472C22.7382 40.2865 22.6317 40.07 22.5763 39.8382C22.521 39.6063 22.5181 39.365 22.5679 39.132L24.6259 29.17L22.3859 29.85C22.0795 29.9423 21.7527 29.9417 21.4466 29.8485C21.1405 29.7552 20.8688 29.5734 20.6659 29.326C20.5147 29.1412 20.4066 28.9251 20.3495 28.6933C20.2924 28.4614 20.2878 28.2198 20.3359 27.986L21.5959 21.826L17.5419 22.762C17.2675 22.8248 16.9814 22.8149 16.712 22.7331C16.4426 22.6514 16.1992 22.5007 16.0059 22.296C15.8561 22.1357 15.7404 21.9468 15.6658 21.7405C15.5912 21.5342 15.5593 21.3149 15.5719 21.096L16.3499 7.95596L1.46994 5.29596C1.24068 5.25459 1.00437 5.2795 0.788774 5.36777C0.573179 5.45605 0.387254 5.60402 0.252841 5.79429C0.118427 5.98457 0.0411077 6.20926 0.0299655 6.44196C0.0188233 6.67466 0.0743213 6.90571 0.18994 7.10796L23.1599 47.382C23.2672 47.5705 23.4227 47.7271 23.6104 47.8358C23.7981 47.9444 24.0114 48.0013 24.2283 48.0005C24.4452 47.9996 24.658 47.9412 24.8449 47.8311C25.0318 47.721 25.1861 47.5633 25.2919 47.374L47.8119 7.10396C47.9248 6.90134 47.9778 6.67083 47.9647 6.43926C47.9517 6.20769 47.8731 5.9846 47.7381 5.79598C47.6031 5.60736 47.4173 5.46097 47.2024 5.37386C46.9874 5.28675 46.7521 5.26251 46.5239 5.30396Z" fill="#F1F5F9"/>
</g>
<defs>
<clipPath id="clip0_341_27">
<rect width="48" height="48" fill="white"/>
</clipPath>
</defs>
</svg>
