<svg width="165" height="50" viewBox="0 0 165 50" fill="none" xmlns="http://www.w3.org/2000/svg">
<path d="M0 50V0.0243419H49.6337V50H0ZM16.8055 40.1659L24.8112 29.6372L32.8449 40.1659H39.8762L28.3929 25.0197L39.8762 9.94833H32.8449L24.8485 20.4153L16.8074 9.94833H9.77611L21.384 25.0178L9.77611 40.1659H16.8074H16.8055Z" fill="#F1F5F9"/>
<path d="M107.156 24.9447C107.156 38.6717 96.1042 49.7997 82.4712 49.7997C68.8382 49.7997 57.7864 38.6717 57.7864 24.9447C57.7864 11.2178 68.8382 0.0898775 82.4712 0.0898775C96.1042 0.0898775 107.156 11.2178 107.156 24.9447ZM68.1519 11.2291L79.6092 29.3938V41.3586H85.3797V29.3938L96.7942 11.2291H90.382L82.4731 23.9692L74.9917 11.2291H68.1519Z" fill="#F1F5F9"/>
<path d="M165 24.9616L150.688 49.9214H114.907V0H150.688L165 24.9597V24.9616ZM140.126 40.0105C146.147 40.0105 150.318 36.7636 150.318 31.6537C150.318 27.8864 147.953 25.3755 144.427 24.4223C147.523 23.1228 149.243 20.7411 149.243 17.5805C149.243 12.948 145.286 9.69928 139.568 9.69928H124.731V40.0105H140.127H140.126ZM130.535 15.1125H139.352C141.846 15.1125 143.566 16.2809 143.566 18.3594C143.566 20.5239 142.147 21.8234 139.352 21.8234H130.535V15.1107V15.1125ZM130.535 27.1075H140.211C142.921 27.1075 144.512 28.7964 144.512 30.9178C144.512 33.1255 142.792 34.5991 140.211 34.5991H130.535V27.1075Z" fill="#F1F5F9"/>
</svg>
